<svg width="400" height="220" viewBox="0 0 400 220" fill="none" xmlns="http://www.w3.org/2000/svg">
<g clip-path="url(#clip0_17_22)">
<circle cx="1.5" cy="1.5" r="1.5" fill="#656462"/>
<circle cx="24.5" cy="1.5" r="1.5" fill="#656462"/>
<circle cx="47.5" cy="1.5" r="1.5" fill="#656462"/>
<circle cx="70.5" cy="1.5" r="1.5" fill="#656462"/>
<circle cx="93.5" cy="1.5" r="1.5" fill="#656462"/>
<circle cx="116.5" cy="1.5" r="1.5" fill="#656462"/>
<circle cx="139.5" cy="1.5" r="1.5" fill="#656462"/>
<circle cx="162.5" cy="1.5" r="1.5" fill="#656462"/>
<circle cx="185.5" cy="1.5" r="1.5" fill="#656462"/>
<circle cx="208.5" cy="1.5" r="1.5" fill="#656462"/>
<circle cx="231.5" cy="1.5" r="1.5" fill="#656462"/>
<circle cx="254.5" cy="1.5" r="1.5" fill="#656462"/>
<circle cx="277.5" cy="1.5" r="1.5" fill="#656462"/>
<circle cx="300.5" cy="1.5" r="1.5" fill="#656462"/>
<circle cx="323.5" cy="1.5" r="1.5" fill="#656462"/>
<circle cx="346.5" cy="1.5" r="1.5" fill="#656462"/>
<circle cx="369.5" cy="1.5" r="1.5" fill="#656462"/>
<circle cx="392.5" cy="1.5" r="1.5" fill="#656462"/>
<circle cx="1.5" cy="24.5" r="1.5" fill="#656462"/>
<circle cx="24.5" cy="24.5" r="1.5" fill="#656462"/>
<circle cx="47.5" cy="24.5" r="1.5" fill="#656462"/>
<circle cx="70.5" cy="24.5" r="1.5" fill="#656462"/>
<circle cx="93.5" cy="24.5" r="1.5" fill="#656462"/>
<circle cx="116.5" cy="24.5" r="1.5" fill="#656462"/>
<circle cx="139.5" cy="24.5" r="1.5" fill="#656462"/>
<circle cx="162.5" cy="24.5" r="1.5" fill="#656462"/>
<circle cx="185.5" cy="24.5" r="1.5" fill="#656462"/>
<circle cx="208.5" cy="24.5" r="1.5" fill="#656462"/>
<circle cx="231.5" cy="24.5" r="1.5" fill="#656462"/>
<circle cx="254.5" cy="24.5" r="1.5" fill="#656462"/>
<circle cx="277.5" cy="24.5" r="1.5" fill="#656462"/>
<circle cx="300.5" cy="24.5" r="1.5" fill="#656462"/>
<circle cx="323.5" cy="24.5" r="1.5" fill="#656462"/>
<circle cx="346.5" cy="24.5" r="1.5" fill="#656462"/>
<circle cx="369.5" cy="24.5" r="1.5" fill="#656462"/>
<circle cx="392.5" cy="24.5" r="1.5" fill="#656462"/>
<circle cx="1.5" cy="47.5" r="1.5" fill="#656462"/>
<circle cx="24.5" cy="47.5" r="1.5" fill="#656462"/>
<circle cx="47.5" cy="47.5" r="1.5" fill="#656462"/>
<circle cx="70.5" cy="47.5" r="1.5" fill="#656462"/>
<circle cx="93.5" cy="47.5" r="1.5" fill="#656462"/>
<circle cx="116.5" cy="47.5" r="1.5" fill="#656462"/>
<circle cx="139.5" cy="47.5" r="1.5" fill="#656462"/>
<circle cx="162.5" cy="47.5" r="1.5" fill="#656462"/>
<circle cx="185.5" cy="47.5" r="1.5" fill="#656462"/>
<circle cx="208.5" cy="47.5" r="1.5" fill="#656462"/>
<circle cx="231.5" cy="47.5" r="1.5" fill="#656462"/>
<circle cx="254.5" cy="47.5" r="1.5" fill="#656462"/>
<circle cx="277.5" cy="47.5" r="1.5" fill="#656462"/>
<circle cx="300.5" cy="47.5" r="1.5" fill="#656462"/>
<circle cx="323.5" cy="47.5" r="1.5" fill="#656462"/>
<circle cx="346.5" cy="47.5" r="1.5" fill="#656462"/>
<circle cx="369.5" cy="47.5" r="1.5" fill="#656462"/>
<circle cx="392.5" cy="47.5" r="1.5" fill="#656462"/>
<circle cx="1.5" cy="70.5" r="1.5" fill="#656462"/>
<circle cx="24.5" cy="70.5" r="1.5" fill="#656462"/>
<circle cx="47.5" cy="70.5" r="1.5" fill="#656462"/>
<circle cx="70.5" cy="70.5" r="1.5" fill="#656462"/>
<circle cx="93.5" cy="70.5" r="1.5" fill="#656462"/>
<circle cx="116.5" cy="70.5" r="1.5" fill="#656462"/>
<circle cx="139.5" cy="70.5" r="1.5" fill="#656462"/>
<circle cx="162.5" cy="70.5" r="1.5" fill="#656462"/>
<circle cx="185.5" cy="70.5" r="1.5" fill="#656462"/>
<circle cx="208.5" cy="70.5" r="1.5" fill="#656462"/>
<circle cx="231.5" cy="70.5" r="1.5" fill="#656462"/>
<circle cx="254.5" cy="70.5" r="1.5" fill="#656462"/>
<circle cx="277.5" cy="70.5" r="1.5" fill="#656462"/>
<circle cx="300.5" cy="70.5" r="1.5" fill="#656462"/>
<circle cx="323.5" cy="70.5" r="1.5" fill="#656462"/>
<circle cx="346.5" cy="70.5" r="1.5" fill="#656462"/>
<circle cx="369.5" cy="70.5" r="1.5" fill="#656462"/>
<circle cx="392.5" cy="70.5" r="1.5" fill="#656462"/>
<circle cx="1.5" cy="93.5" r="1.5" fill="#656462"/>
<circle cx="24.5" cy="93.5" r="1.5" fill="#656462"/>
<circle cx="47.5" cy="93.5" r="1.5" fill="#656462"/>
<circle cx="70.5" cy="93.5" r="1.5" fill="#656462"/>
<circle cx="93.5" cy="93.5" r="1.5" fill="#656462"/>
<circle cx="116.5" cy="93.5" r="1.5" fill="#656462"/>
<circle cx="139.5" cy="93.5" r="1.5" fill="#656462"/>
<circle cx="162.5" cy="93.5" r="1.5" fill="#656462"/>
<circle cx="185.5" cy="93.5" r="1.5" fill="#656462"/>
<circle cx="208.5" cy="93.5" r="1.5" fill="#656462"/>
<circle cx="231.5" cy="93.5" r="1.5" fill="#656462"/>
<circle cx="254.5" cy="93.5" r="1.5" fill="#656462"/>
<circle cx="277.5" cy="93.5" r="1.5" fill="#656462"/>
<circle cx="300.5" cy="93.5" r="1.5" fill="#656462"/>
<circle cx="323.5" cy="93.5" r="1.5" fill="#656462"/>
<circle cx="346.5" cy="93.5" r="1.5" fill="#656462"/>
<circle cx="369.5" cy="93.5" r="1.5" fill="#656462"/>
<circle cx="392.5" cy="93.5" r="1.5" fill="#656462"/>
<circle cx="1.5" cy="116.5" r="1.5" fill="#656462"/>
<circle cx="24.5" cy="116.5" r="1.5" fill="#656462"/>
<circle cx="47.5" cy="116.5" r="1.5" fill="#656462"/>
<circle cx="70.5" cy="116.5" r="1.5" fill="#656462"/>
<circle cx="93.5" cy="116.5" r="1.5" fill="#656462"/>
<circle cx="116.5" cy="116.5" r="1.5" fill="#656462"/>
<circle cx="139.5" cy="116.5" r="1.5" fill="#656462"/>
<circle cx="162.5" cy="116.5" r="1.5" fill="#656462"/>
<circle cx="185.5" cy="116.5" r="1.5" fill="#656462"/>
<circle cx="208.5" cy="116.5" r="1.5" fill="#656462"/>
<circle cx="231.5" cy="116.5" r="1.5" fill="#656462"/>
<circle cx="254.5" cy="116.5" r="1.5" fill="#656462"/>
<circle cx="277.5" cy="116.5" r="1.5" fill="#656462"/>
<circle cx="300.5" cy="116.5" r="1.5" fill="#656462"/>
<circle cx="323.5" cy="116.5" r="1.5" fill="#656462"/>
<circle cx="346.5" cy="116.5" r="1.5" fill="#656462"/>
<circle cx="369.5" cy="116.5" r="1.5" fill="#656462"/>
<circle cx="392.5" cy="116.5" r="1.5" fill="#656462"/>
<circle cx="1.5" cy="139.5" r="1.5" fill="#656462"/>
<circle cx="24.5" cy="139.5" r="1.5" fill="#656462"/>
<circle cx="47.5" cy="139.5" r="1.5" fill="#656462"/>
<circle cx="70.5" cy="139.5" r="1.5" fill="#656462"/>
<circle cx="93.5" cy="139.5" r="1.5" fill="#656462"/>
<circle cx="116.5" cy="139.5" r="1.5" fill="#656462"/>
<circle cx="139.5" cy="139.5" r="1.5" fill="#656462"/>
<circle cx="162.5" cy="139.5" r="1.5" fill="#656462"/>
<circle cx="185.5" cy="139.5" r="1.5" fill="#656462"/>
<circle cx="208.5" cy="139.5" r="1.5" fill="#656462"/>
<circle cx="231.5" cy="139.5" r="1.5" fill="#656462"/>
<circle cx="254.5" cy="139.5" r="1.5" fill="#656462"/>
<circle cx="277.5" cy="139.5" r="1.5" fill="#656462"/>
<circle cx="300.5" cy="139.5" r="1.5" fill="#656462"/>
<circle cx="323.5" cy="139.5" r="1.5" fill="#656462"/>
<circle cx="346.5" cy="139.5" r="1.5" fill="#656462"/>
<circle cx="369.5" cy="139.5" r="1.5" fill="#656462"/>
<circle cx="392.5" cy="139.5" r="1.5" fill="#656462"/>
<circle cx="1.5" cy="162.5" r="1.5" fill="#656462"/>
<circle cx="24.5" cy="162.5" r="1.5" fill="#656462"/>
<circle cx="47.5" cy="162.5" r="1.5" fill="#656462"/>
<circle cx="70.5" cy="162.5" r="1.5" fill="#656462"/>
<circle cx="93.5" cy="162.5" r="1.5" fill="#656462"/>
<circle cx="116.5" cy="162.5" r="1.5" fill="#656462"/>
<circle cx="139.5" cy="162.5" r="1.5" fill="#656462"/>
<circle cx="162.5" cy="162.5" r="1.5" fill="#656462"/>
<circle cx="185.5" cy="162.5" r="1.5" fill="#656462"/>
<circle cx="208.5" cy="162.5" r="1.5" fill="#656462"/>
<circle cx="231.5" cy="162.5" r="1.5" fill="#656462"/>
<circle cx="254.5" cy="162.5" r="1.5" fill="#656462"/>
<circle cx="277.5" cy="162.5" r="1.5" fill="#656462"/>
<circle cx="300.5" cy="162.5" r="1.5" fill="#656462"/>
<circle cx="323.5" cy="162.5" r="1.5" fill="#656462"/>
<circle cx="346.5" cy="162.5" r="1.5" fill="#656462"/>
<circle cx="369.5" cy="162.5" r="1.5" fill="#656462"/>
<circle cx="392.5" cy="162.5" r="1.5" fill="#656462"/>
<circle cx="1.5" cy="185.5" r="1.5" fill="#656462"/>
<circle cx="24.5" cy="185.5" r="1.5" fill="#656462"/>
<circle cx="47.5" cy="185.5" r="1.5" fill="#656462"/>
<circle cx="70.5" cy="185.5" r="1.5" fill="#656462"/>
<circle cx="93.5" cy="185.5" r="1.5" fill="#656462"/>
<circle cx="116.5" cy="185.5" r="1.5" fill="#656462"/>
<circle cx="139.5" cy="185.5" r="1.5" fill="#656462"/>
<circle cx="162.5" cy="185.5" r="1.5" fill="#656462"/>
<circle cx="185.5" cy="185.5" r="1.5" fill="#656462"/>
<circle cx="208.5" cy="185.5" r="1.5" fill="#656462"/>
<circle cx="231.5" cy="185.5" r="1.5" fill="#656462"/>
<circle cx="254.5" cy="185.5" r="1.5" fill="#656462"/>
<circle cx="277.5" cy="185.5" r="1.5" fill="#656462"/>
<circle cx="300.5" cy="185.5" r="1.5" fill="#656462"/>
<circle cx="323.5" cy="185.5" r="1.5" fill="#656462"/>
<circle cx="346.5" cy="185.5" r="1.5" fill="#656462"/>
<circle cx="369.5" cy="185.5" r="1.5" fill="#656462"/>
<circle cx="392.5" cy="185.5" r="1.5" fill="#656462"/>
<circle cx="1.5" cy="208.5" r="1.5" fill="#656462"/>
<circle cx="24.5" cy="208.5" r="1.5" fill="#656462"/>
<circle cx="47.5" cy="208.5" r="1.5" fill="#656462"/>
<circle cx="70.5" cy="208.5" r="1.5" fill="#656462"/>
<circle cx="93.5" cy="208.5" r="1.5" fill="#656462"/>
<circle cx="116.5" cy="208.5" r="1.5" fill="#656462"/>
<circle cx="139.5" cy="208.5" r="1.5" fill="#656462"/>
<circle cx="162.5" cy="208.5" r="1.5" fill="#656462"/>
<circle cx="185.5" cy="208.5" r="1.5" fill="#656462"/>
<circle cx="208.5" cy="208.5" r="1.5" fill="#656462"/>
<circle cx="231.5" cy="208.5" r="1.5" fill="#656462"/>
<circle cx="254.5" cy="208.5" r="1.5" fill="#656462"/>
<circle cx="277.5" cy="208.5" r="1.5" fill="#656462"/>
<circle cx="300.5" cy="208.5" r="1.5" fill="#656462"/>
<circle cx="323.5" cy="208.5" r="1.5" fill="#656462"/>
<circle cx="346.5" cy="208.5" r="1.5" fill="#656462"/>
<circle cx="369.5" cy="208.5" r="1.5" fill="#656462"/>
<circle cx="392.5" cy="208.5" r="1.5" fill="#656462"/>
</g>
<defs>
<clipPath id="clip0_17_22">
<rect width="400" height="220" fill="white"/>
</clipPath>
</defs>
</svg>
